<?xml version="1.0" encoding="utf-8"?>
<!-- Generator: Adobe Illustrator 16.0.0, SVG Export Plug-In . SVG Version: 6.00 Build 0)  -->
<!DOCTYPE svg PUBLIC "-//W3C//DTD SVG 1.1//EN" "http://www.w3.org/Graphics/SVG/1.1/DTD/svg11.dtd">
<svg version="1.1" id="Layer_1" xmlns="http://www.w3.org/2000/svg" xmlns:xlink="http://www.w3.org/1999/xlink" x="0px" y="0px"
	 width="293.755px" height="197.136px" viewBox="0 0 293.755 197.136" enable-background="new 0 0 293.755 197.136"
	 xml:space="preserve">
<g>
	<g>
		<path fill="#41413E" d="M65.959,18.612c1.921,1.156,3.535,2.674,4.823,4.544l19.095,27.746l18.083,26.266
			c1.355,1.978,2.254,4.097,2.674,6.355c0.427,2.267,0.44,4.533,0.063,6.804c-0.386,2.268-1.141,4.404-2.279,6.397
			c-1.146,1.999-2.682,3.702-4.62,5.127c-1.615,1.191-3.492,1.871-5.656,2.036c-2.142,0.175-4.189,0.143-6.138-0.084
			c-1.824,2.993-3.949,6.1-6.384,9.28c-2.405,3.188-4.925,5.726-7.507,7.629c-5.71,4.203-11.774,7.036-18.204,8.525
			c-6.442,1.496-12.794,1.724-19.09,0.718c-6.285-1.019-12.193-3.185-17.725-6.507c-5.527-3.318-10.184-7.729-13.98-13.231
			c-4.015-5.835-6.685-12.077-8.02-18.73c-1.331-6.641-1.448-13.228-0.348-19.756C1.849,65.2,4.108,59.023,7.553,53.18
			c3.441-5.832,8.009-10.85,13.724-15.046c2.583-1.894,5.708-3.541,9.384-4.901c3.673-1.374,7.223-2.408,10.641-3.092
			c0.352-2.089,0.976-4.12,1.877-6.106c0.907-1.995,2.159-3.574,3.778-4.759c1.94-1.43,4-2.361,6.206-2.822
			c2.195-0.455,4.401-0.494,6.599-0.12C61.965,16.703,64.03,17.461,65.959,18.612z M64.991,76.392
			c-0.362-2.057-1.108-3.911-2.246-5.563c-1.359-1.973-3.002-3.595-4.917-4.844c-1.909-1.241-3.895-2.06-5.945-2.467
			c-2.062-0.389-4.109-0.432-6.144-0.091c-2.042,0.339-3.863,1.102-5.481,2.285c-1.939,1.426-3.479,3.134-4.618,5.132
			c-1.138,1.995-1.914,4.105-2.332,6.317c-0.427,2.227-0.401,4.487,0.053,6.794c0.459,2.328,1.368,4.478,2.726,6.45
			c1.14,1.652,2.616,2.979,4.438,3.956c1.817,0.993,3.777,1.618,5.914,1.871c2.125,0.268,4.267,0.145,6.427-0.366
			c2.161-0.508,4.211-1.473,6.151-2.898c1.619-1.186,2.928-2.689,3.951-4.516c1.008-1.822,1.692-3.77,2.042-5.858
			C65.362,80.522,65.355,78.457,64.991,76.392"/>
	</g>
	<g>
		<path fill="#41413E" d="M125.887,28.177c4.211,0.711,7.69,3.052,10.413,7.021l56.844,82.574c3.79,5.509,6.367,11.489,7.736,17.954
			c1.368,6.459,1.559,12.854,0.581,19.212c-0.988,6.351-3.184,12.4-6.6,18.153c-3.428,5.74-7.932,10.67-13.528,14.78
			c-5.388,3.956-11.244,6.632-17.564,8.05c-6.331,1.421-12.612,1.591-18.848,0.534c-6.235-1.055-12.105-3.287-17.624-6.691
			c-5.505-3.418-10.159-7.875-13.953-13.385c-3.938-5.72-6.619-11.922-8.044-18.582c-1.425-6.667-1.614-13.24-0.563-19.729
			c1.043-6.488,3.226-12.607,6.56-18.374c3.336-5.753,7.693-10.613,13.083-14.57c2.684-1.968,5.349-3.521,7.988-4.637
			c2.646-1.103,5.474-1.935,8.491-2.507L110.624,54.05c-2.727-3.956-3.789-8.079-3.156-12.348c0.622-4.273,2.77-7.756,6.428-10.444
			C117.666,28.487,121.66,27.466,125.887,28.177z M169.632,142.26c-0.306-2.097-1.036-3.976-2.165-5.623
			c-1.362-1.98-3.029-3.575-4.993-4.785c-1.977-1.202-4.056-2.005-6.256-2.374c-2.199-0.372-4.429-0.3-6.682,0.18
			c-2.259,0.495-4.356,1.462-6.287,2.875c-3.771,2.774-5.89,6.53-6.365,11.267c-0.463,4.745,0.636,9.034,3.279,12.882
			c1.138,1.648,2.559,3.019,4.27,4.085c1.706,1.072,3.563,1.783,5.583,2.108c2.02,0.347,4.055,0.295,6.114-0.132
			c2.051-0.43,4.049-1.359,5.991-2.783c1.931-1.42,3.52-3.121,4.747-5.11c1.228-1.977,2.08-4.047,2.535-6.21
			C169.864,146.484,169.938,144.358,169.632,142.26"/>
	</g>
	<g>
		<path fill="#41413E" d="M270.774,36.525c5.618,3.573,10.441,8.288,14.456,14.115c3.795,5.513,6.308,11.459,7.543,17.844
			c1.23,6.392,1.305,12.799,0.219,19.231c-1.085,6.432-3.289,12.486-6.595,18.151c-3.313,5.659-7.611,10.43-12.887,14.311
			c-5.703,4.19-11.76,7.017-18.127,8.461c-6.382,1.457-12.66,1.632-18.849,0.54c-6.186-1.088-11.962-3.312-17.344-6.659
			c-5.386-3.336-9.961-7.766-13.756-13.27l-57.297-83.245c-2.578-3.743-3.514-7.741-2.789-12.001c0.717-4.25,2.958-7.771,6.73-10.54
			c3.872-2.84,7.91-3.935,12.085-3.279c4.185,0.655,7.56,2.861,10.136,6.603l30.472,44.264c2.651-5.098,6.619-9.574,11.897-13.452
			c5.278-3.87,11.068-6.476,17.371-7.796c6.305-1.315,12.602-1.422,18.878-0.307C259.192,30.604,265.147,32.944,270.774,36.525z
			 M260.689,75.759c-0.447-2.074-1.208-3.87-2.274-5.42c-2.726-3.962-6.302-6.521-10.737-7.646
			c-4.431-1.146-8.479-0.367-12.139,2.316c-1.94,1.427-3.51,3.158-4.696,5.189c-1.195,2.047-1.938,4.203-2.229,6.495
			c-0.283,2.271-0.202,4.583,0.25,6.892c0.47,2.322,1.38,4.469,2.741,6.439c1.067,1.554,2.518,2.842,4.376,3.887
			c1.847,1.046,3.818,1.711,5.875,2.018c2.076,0.301,4.239,0.205,6.494-0.293c2.249-0.49,4.343-1.449,6.287-2.878
			c1.829-1.342,3.254-2.974,4.296-4.893c1.021-1.913,1.69-3.892,1.986-5.937C261.224,79.889,261.137,77.831,260.689,75.759"/>
	</g>
</g>
</svg>
