<?xml version="1.0" encoding="utf-8"?>
<!-- Generator: Adobe Illustrator 16.0.0, SVG Export Plug-In . SVG Version: 6.00 Build 0)  -->
<!DOCTYPE svg PUBLIC "-//W3C//DTD SVG 1.1//EN" "http://www.w3.org/Graphics/SVG/1.1/DTD/svg11.dtd">
<svg version="1.1" id="Layer_1" xmlns="http://www.w3.org/2000/svg" xmlns:xlink="http://www.w3.org/1999/xlink" x="0px" y="0px"
	 width="624px" height="343px" viewBox="0 0 624 343" enable-background="new 0 0 624 343" xml:space="preserve">
<g>
	<path fill="#565656" d="M559,12c1.667,0,3.333,0,5,0c0.744,0.329,1.46,0.762,2.236,0.971c13.011,3.492,26.26,3.147,39.546,2.579
		c2.048-0.088,4.144,0.939,6.218,1.45c0,1.333,0,2.667,0,4c-1.853,2.282-4.029,2.976-7.011,2.198
		c-1.833-0.478-4.092-0.45-5.869,0.176c-8.255,2.908-15.873,7.008-21.069,14.337c-4.998,7.049-9.726,14.298-14.347,21.602
		c-1.089,1.722-1.614,3.98-1.823,6.05c-1.815,17.954-9.788,32.384-23.944,43.636c-7.977,6.34-16.987,11.292-22.884,20.391
		c-4.584,7.071-6.303,14.113-5.275,22.045c0.623,4.801,0.037,8.771-4.085,11.862c-4.626,3.468-9.054,7.197-13.644,10.714
		c-4.93,3.777-9.946,7.439-15.055,11.249c1.589,1.484,2.637,2.465,4.656,4.352c-8.047,4.531-15.54,8.67-22.943,12.963
		c-2.493,1.445-5.229,2.885-7.041,5.016c-5.591,6.578-10.592,13.656-16.205,20.213c-4.162,4.859-8.211,9.677-9.107,16.217
		c-0.457,3.329-1.002,6.924-0.234,10.091c2.104,8.683-2.673,15.474-5.502,22.774c-1.87,4.826-1.875,9.336,0.365,13.938
		c0.764,1.573,1.397,3.21,1.851,4.259c-6.815,5.146-13.053,10.078-19.526,14.68c-5.781,4.109-11.828,7.595-19.084,2.873
		c-0.873-0.568-2.312-0.807-3.32-0.547c-7.527,1.942-15.35,3.262-22.43,6.293c-9.82,4.204-18.41,11.253-29.473,12.619c-2,0-4,0-6,0
		c-6.498-2.397-13.146-4.468-19.428-7.337c-2.922-1.334-5.822-3.784-7.536-6.487c-4.442-7.006-7.981-14.581-12.364-21.629
		c-2.225-3.578-4.998-7.201-8.376-9.605c-12.046-8.573-24.364-16.746-38.402-21.949c-5.345-1.98-10.378-4.809-15.999-0.725
		c-2.202-3.605-3.458-7.666-6.209-9.745c-5.471-4.133-11.854-7.038-17.666-10.753c-1.743-1.113-3.633-3.036-4.096-4.922
		c-1.52-6.194-5.892-9.701-10.633-13.196c-3.791-2.794-6.91-1.849-9.508,1.301c-2.703,3.278-4.963,6.923-7.214,10.118
		c-4.013-0.353-8.07-0.73-12.13-1.059c-4.219-0.342-8.48-0.377-12.65-1.022c-3.755-0.581-7.393-2.515-11.115-2.612
		c-11.533-0.303-23.299-1.322-34.54,0.551c-6.446,1.074-12.025,2.266-18.533,0.451c-7.328-2.044-15.039-4.855-22.667-0.432
		c-0.21,0.121-0.624-0.109-0.945-0.178c-0.782-1.176-1.562-2.352-1.616-2.432c-5.445,1.283-10.186,3.249-14.922,3.237
		c-3.471-0.009-7.977-1.69-10.221-4.222c-8.922-10.066-15.054-21.426-12.887-35.74c0.366-2.415-0.856-5.069-1.344-7.613
		c0-2.334,0-4.666,0-7c3.295-5.56,8.074-7.511,14.531-6.995c2.518,0.201,5.188-1.79,7.826-2.669
		c1.243-0.414,3.086-1.231,3.777-0.707c2.962,2.25,5.231,0.797,7.65-0.754c0.368-0.236,0.875-0.252,1.326-0.372
		c0.934,1.261,1.791,2.419,2.675,3.613c1.179-0.374,2.128-0.65,3.062-0.974c5.649-1.96,6.189-3.302,3.54-8.616
		c-1.238-2.484-2.432-4.99-3.688-7.574c5.176-2.928,9.721-6.186,14.775-8.093c2.891-1.091,7.32-1.124,9.781,0.412
		c3.273,2.042,4.998,6.056,2.685,10.482c-1.025,1.961-1.449,4.236-1.992,5.898c9.811,6.818,19.705,4.95,29.726,2.774
		c10.305-2.238,17.994-8.885,26.417-14.503c4.63-3.088,10.339-4.574,15.6-6.688c1.386-0.557,3.642-0.312,4.205-1.229
		c0.808-1.318,0.514-3.362,0.538-5.098c0.026-1.947-0.75-4.153-0.081-5.801c3.302-8.126,17.186-12.732,25.021-8.849
		c6.625,3.284,13.706,5.702,20.143,9.294c4.59,2.561,10.99,4.248,10.164,11.874c-0.092,0.845,1.12,2.255,2.064,2.724
		c11.024,5.477,22.167,10.994,34.708,11.495c5.992,0.239,12.879,0.92,16.325-6.462c0.621-1.331,2.253-2.487,3.686-3.09
		c5.188-2.185,10.515-4.037,15.739-6.139c3.661-1.473,7.681-2.56,10.756-4.865c4.973-3.727,10.165-3.56,15.618-2.506
		c3.416,0.66,6.73,1.833,10.127,2.615c7.258,1.672,14.708,2.229,21.453-1.184c7.645-3.868,15.266-8.026,20.129-15.733
		c1.828-2.896,4.599-5.186,6.84-7.836c4.378-5.178,9.012-10.187,12.905-15.712c2.473-3.509,3.679-7.757,9.35-7.096
		c1.195,0.14,2.747-1.629,3.932-2.736c7.298-6.823,14.479-13.771,21.844-20.521c1.522-1.395,3.54-2.622,5.524-3.081
		c12.51-2.895,24.707-6.543,35.781-13.281c0.699-0.425,1.51-0.702,2.303-0.927c17.374-4.935,34.751-9.858,52.136-14.752
		c0.779-0.22,1.724-0.406,2.452-0.173c11.099,3.549,19.026-3.814,26.467-9.267C546.067,20.317,550.771,13.68,559,12z"/>
</g>
<polygon fill="#FFFFFF" points="391.754,144.285 391.754,135.978 386.833,135.978 386.833,139.266 380.508,132.814 362.938,150.736 
	367.154,150.736 367.154,162.333 378.049,162.333 378.049,152.845 382.968,152.845 382.968,162.333 393.862,162.333 
	393.862,150.736 398.079,150.736 "/>
<path fill="#565656" d="M76.711,30.172c-0.001-0.027-0.004-0.053-0.006-0.08c-0.001-0.014-0.002-0.027-0.003-0.041
	c-0.001-0.019-0.005-0.039-0.008-0.057c-0.002-0.023-0.005-0.045-0.009-0.067c0-0.002-0.001-0.006-0.001-0.009
	c-0.08-0.5-0.315-0.969-0.676-1.331c-2.064-2.447-4.521-4.625-7.017-6.613c-5.379-4.286-11.53-7.871-18.32-9.314
	c-3.924-0.833-7.873-0.869-11.818-0.164c-3.588,0.642-7.046,1.977-10.283,3.63c-5.067,2.589-9.694,6.158-13.726,10.159
	c-0.746,0.74-1.489,1.496-2.167,2.3c-0.903,1.071-0.903,2.338,0,3.409c2.064,2.447,4.521,4.624,7.018,6.613
	c5.379,4.285,11.53,7.869,18.32,9.312c3.924,0.834,7.874,0.87,11.818,0.165c3.588-0.642,7.046-1.976,10.284-3.63
	c5.066-2.59,9.693-6.158,13.725-10.159c0.746-0.741,1.488-1.496,2.167-2.301c0.361-0.361,0.597-0.83,0.676-1.331
	c0-0.003,0-0.006,0.001-0.008c0.003-0.023,0.006-0.045,0.009-0.067c0.002-0.019,0.006-0.038,0.007-0.058
	c0.001-0.014,0.002-0.026,0.004-0.04c0.002-0.026,0.004-0.052,0.006-0.079c0.002-0.04,0.003-0.08,0.003-0.121
	C76.716,30.251,76.713,30.212,76.711,30.172z M44.357,42.744c-6.877,0-12.452-5.574-12.452-12.452
	c0-6.876,5.575-12.452,12.452-12.452c6.877,0,12.452,5.575,12.452,12.452C56.81,37.169,51.235,42.744,44.357,42.744z"/>
<circle fill="#565656" cx="44.357" cy="30.292" r="4.122"/>
</svg>
