<?xml version="1.0" encoding="utf-8"?>
<!-- Generator: Adobe Illustrator 16.0.0, SVG Export Plug-In . SVG Version: 6.00 Build 0)  -->
<!DOCTYPE svg PUBLIC "-//W3C//DTD SVG 1.1//EN" "http://www.w3.org/Graphics/SVG/1.1/DTD/svg11.dtd">
<svg version="1.1" id="Layer_1" xmlns="http://www.w3.org/2000/svg" xmlns:xlink="http://www.w3.org/1999/xlink" x="0px" y="0px"
	 width="61.25px" height="70.548px" viewBox="0 0 61.25 70.548" enable-background="new 0 0 61.25 70.548" xml:space="preserve">
<g>
	<g>
		<rect fill="#FEC65F" width="60.404" height="70.235"/>
	</g>
	<g>
		<path fill="#FFFFFF" d="M9.843,2.809c1.092,0,3.227,0.456,3.227,1.907v0.948h-1.427v-0.48c0-0.624-1.02-0.911-1.763-0.911
			c-1.523,0-2.723,1.091-2.723,2.866c0,1.667,1.224,3.01,2.771,3.01c1.607,0,2.579-1.127,2.579-1.127l0.828,1.127
			c0,0-1.235,1.463-3.43,1.463c-2.603,0-4.377-1.955-4.377-4.474C5.525,4.68,7.372,2.809,9.843,2.809z"/>
		<path fill="#FFFFFF" d="M17.163,5.208c1.751,0,2.711,1.284,2.711,2.903c0,0.18-0.036,0.563-0.036,0.563h-4.222
			c0.12,1.08,0.912,1.643,1.835,1.643c0.983,0,1.715-0.684,1.715-0.684l0.636,1.055c0,0-0.936,0.924-2.458,0.924
			c-2.027,0-3.287-1.463-3.287-3.202C14.057,6.527,15.329,5.208,17.163,5.208z M18.314,7.618c-0.023-0.731-0.527-1.235-1.151-1.235
			c-0.779,0-1.331,0.468-1.499,1.235H18.314z"/>
		<path fill="#FFFFFF" d="M21.353,6.911c0-0.18-0.096-0.264-0.264-0.264h-0.479V5.352h1.392c0.539,0,0.815,0.228,0.815,0.744v0.36
			c0,0.228-0.024,0.384-0.024,0.384h0.024c0.275-0.875,1.007-1.571,1.942-1.571c0.132,0,0.276,0.024,0.276,0.024v1.5
			c0,0-0.156-0.024-0.372-0.024c-0.647,0-1.392,0.372-1.667,1.284c-0.084,0.3-0.132,0.635-0.132,0.995v2.423h-1.512V6.911z"/>
		<path fill="#FFFFFF" d="M26.32,6.563h-0.792V5.352h0.828V3.685h1.487v1.667h1.391v1.211h-1.391v2.471
			c0,1.007,0.791,1.151,1.211,1.151c0.168,0,0.275-0.024,0.275-0.024v1.331c0,0-0.191,0.036-0.467,0.036
			c-0.852,0-2.543-0.252-2.543-2.303V6.563z"/>
		<path fill="#FFFFFF" d="M30.783,6.911c0-0.18-0.096-0.264-0.264-0.264H30.04V5.352h1.451c0.563,0,0.804,0.252,0.804,0.815v3.754
			c0,0.168,0.096,0.264,0.264,0.264h0.479v1.283h-1.451c-0.563,0-0.804-0.24-0.804-0.815V6.911z M30.855,2.953h1.319v1.403h-1.319
			V2.953z"/>
		<path fill="#FFFFFF" d="M34.323,6.563h-0.755V5.352h0.755v-0.18c0-2.003,1.644-2.267,2.495-2.267c0.312,0,0.516,0.036,0.516,0.036
			v1.295c0,0-0.144-0.024-0.348-0.024c-0.432,0-1.14,0.132-1.14,1.019v0.12h3.25c0.563,0,0.815,0.252,0.815,0.815v3.754
			c0,0.168,0.097,0.264,0.265,0.264h0.468v1.283h-1.439c-0.576,0-0.815-0.24-0.815-0.815V6.827c0-0.168-0.097-0.264-0.265-0.264
			h-2.278v4.905h-1.523V6.563z M38.461,2.953h1.319v1.403h-1.319V2.953z"/>
		<path fill="#FFFFFF" d="M44.426,5.208c1.751,0,2.71,1.284,2.71,2.903c0,0.18-0.035,0.563-0.035,0.563h-4.222
			c0.119,1.08,0.911,1.643,1.835,1.643c0.983,0,1.715-0.684,1.715-0.684l0.636,1.055c0,0-0.936,0.924-2.459,0.924
			c-2.026,0-3.286-1.463-3.286-3.202C41.319,6.527,42.591,5.208,44.426,5.208z M45.577,7.618c-0.024-0.731-0.528-1.235-1.151-1.235
			c-0.779,0-1.331,0.468-1.499,1.235H45.577z"/>
		<path fill="#FFFFFF" d="M50.785,5.208c1.331,0,1.764,0.744,1.764,0.744h0.023c0,0-0.012-0.156-0.012-0.36V4.512
			c0-0.18-0.096-0.264-0.264-0.264h-0.48V2.953h1.451c0.564,0,0.816,0.251,0.816,0.815v6.152c0,0.168,0.096,0.264,0.264,0.264h0.468
			v1.283h-1.403c-0.552,0-0.756-0.264-0.756-0.624c0-0.132,0-0.228,0-0.228h-0.023c0,0-0.504,0.996-1.907,0.996
			c-1.655,0-2.723-1.308-2.723-3.202C48.003,6.467,49.166,5.208,50.785,5.208z M52.597,8.398c0-0.947-0.492-1.883-1.512-1.883
			c-0.839,0-1.535,0.684-1.535,1.895c0,1.163,0.612,1.919,1.512,1.919C51.853,10.329,52.597,9.753,52.597,8.398z"/>
	</g>
	<g>
		<path fill="#FFFFFF" d="M7.217,59.688c0.819,0,2.421,0.342,2.421,1.432v0.711H8.567v-0.36c0-0.468-0.765-0.685-1.323-0.685
			c-1.144,0-2.043,0.819-2.043,2.152c0,1.251,0.918,2.26,2.08,2.26c1.206,0,1.936-0.847,1.936-0.847l0.621,0.847
			c0,0-0.927,1.098-2.575,1.098c-1.954,0-3.286-1.467-3.286-3.357C3.976,61.093,5.362,59.688,7.217,59.688z"/>
		<path fill="#FFFFFF" d="M12.887,61.489c1.404,0,2.521,0.998,2.521,2.402c0,1.414-1.117,2.404-2.521,2.404
			c-1.396,0-2.512-0.99-2.512-2.404C10.375,62.487,11.491,61.489,12.887,61.489z M12.887,65.323c0.747,0,1.369-0.576,1.369-1.432
			c0-0.846-0.622-1.431-1.369-1.431c-0.738,0-1.359,0.585-1.359,1.431C11.527,64.747,12.148,65.323,12.887,65.323z"/>
		<path fill="#FFFFFF" d="M16.441,62.767c0-0.135-0.072-0.197-0.198-0.197h-0.36v-0.973h1.044c0.405,0,0.612,0.171,0.612,0.559v0.27
			c0,0.171-0.018,0.288-0.018,0.288h0.018c0.207-0.657,0.757-1.179,1.459-1.179c0.099,0,0.207,0.018,0.207,0.018v1.125
			c0,0-0.117-0.018-0.279-0.018c-0.486,0-1.044,0.279-1.251,0.963c-0.063,0.225-0.1,0.478-0.1,0.748v1.818h-1.134V62.767z"/>
		<path fill="#FFFFFF" d="M20.202,62.767c0-0.135-0.072-0.197-0.198-0.197h-0.359v-0.973h1.017c0.424,0,0.576,0.189,0.576,0.441
			c0,0.107,0,0.18,0,0.18h0.019c0,0,0.387-0.729,1.458-0.729c1.242,0,2.044,0.98,2.044,2.402c0,1.459-0.9,2.404-2.106,2.404
			c-0.909,0-1.314-0.604-1.314-0.604h-0.019c0,0,0.019,0.162,0.019,0.396v1.899h-1.135V62.767z M22.444,65.333
			c0.63,0,1.161-0.514,1.161-1.423c0-0.873-0.469-1.44-1.144-1.44c-0.594,0-1.152,0.432-1.152,1.449
			C21.31,64.63,21.688,65.333,22.444,65.333z"/>
		<path fill="#FFFFFF" d="M27.844,61.489c1.404,0,2.521,0.998,2.521,2.402c0,1.414-1.116,2.404-2.521,2.404
			c-1.396,0-2.512-0.99-2.512-2.404C25.332,62.487,26.448,61.489,27.844,61.489z M27.844,65.323c0.747,0,1.368-0.576,1.368-1.432
			c0-0.846-0.621-1.431-1.368-1.431c-0.738,0-1.359,0.585-1.359,1.431C26.484,64.747,27.105,65.323,27.844,65.323z"/>
		<path fill="#FFFFFF" d="M31.397,62.767c0-0.135-0.072-0.197-0.198-0.197H30.84v-0.973h1.044c0.405,0,0.612,0.171,0.612,0.559v0.27
			c0,0.171-0.019,0.288-0.019,0.288h0.019c0.207-0.657,0.756-1.179,1.458-1.179c0.1,0,0.207,0.018,0.207,0.018v1.125
			c0,0-0.117-0.018-0.278-0.018c-0.486,0-1.045,0.279-1.252,0.963c-0.062,0.225-0.099,0.478-0.099,0.748v1.818h-1.135V62.767z"/>
		<path fill="#FFFFFF" d="M37.113,63.308h0.145v-0.037c0-0.656-0.261-0.899-0.847-0.899c-0.207,0-0.611,0.054-0.611,0.306v0.243
			h-1.062v-0.485c0-0.855,1.206-0.945,1.684-0.945c1.53,0,1.98,0.801,1.98,1.826v1.711c0,0.127,0.072,0.198,0.198,0.198h0.359v0.964
			h-1.026c-0.423,0-0.585-0.234-0.585-0.505c0-0.116,0.009-0.198,0.009-0.198h-0.018c0,0-0.352,0.811-1.387,0.811
			c-0.819,0-1.566-0.514-1.566-1.432C34.386,63.425,36.366,63.308,37.113,63.308z M36.231,65.405c0.612,0,1.044-0.648,1.044-1.207
			v-0.107h-0.197c-0.595,0-1.54,0.08-1.54,0.72C35.538,65.116,35.764,65.405,36.231,65.405z"/>
		<path fill="#FFFFFF" d="M39.895,62.506H39.3v-0.909h0.621v-1.252h1.116v1.252h1.045v0.909h-1.045v1.854
			c0,0.756,0.595,0.864,0.909,0.864c0.127,0,0.208-0.019,0.208-0.019v1c0,0-0.145,0.027-0.352,0.027
			c-0.64,0-1.908-0.189-1.908-1.729V62.506z"/>
		<path fill="#FFFFFF" d="M43.242,62.767c0-0.135-0.072-0.197-0.198-0.197h-0.36v-0.973h1.09c0.423,0,0.604,0.189,0.604,0.612v2.817
			c0,0.127,0.071,0.198,0.197,0.198h0.36v0.964h-1.089c-0.424,0-0.604-0.181-0.604-0.613V62.767z M43.296,59.796h0.99v1.054h-0.99
			V59.796z"/>
		<path fill="#FFFFFF" d="M47.95,61.489c1.404,0,2.521,0.998,2.521,2.402c0,1.414-1.116,2.404-2.521,2.404
			c-1.396,0-2.512-0.99-2.512-2.404C45.438,62.487,46.555,61.489,47.95,61.489z M47.95,65.323c0.747,0,1.368-0.576,1.368-1.432
			c0-0.846-0.621-1.431-1.368-1.431c-0.738,0-1.359,0.585-1.359,1.431C46.591,64.747,47.212,65.323,47.95,65.323z"/>
		<path fill="#FFFFFF" d="M51.504,62.767c0-0.135-0.072-0.197-0.198-0.197h-0.359v-0.973h1.053c0.405,0,0.604,0.189,0.604,0.514
			v0.135c0,0.099-0.019,0.197-0.019,0.197h0.019c0.198-0.387,0.693-0.953,1.62-0.953c1.018,0,1.603,0.53,1.603,1.746v1.791
			c0,0.127,0.072,0.198,0.198,0.198h0.36v0.964h-1.09c-0.432,0-0.612-0.181-0.612-0.613V63.47c0-0.559-0.144-0.938-0.72-0.938
			c-0.612,0-1.071,0.388-1.233,0.938c-0.063,0.188-0.09,0.396-0.09,0.611v2.107h-1.135V62.767z"/>
	</g>
	<g>
		<path fill="#FFFFFF" d="M23.548,27.957h-2.275v-3.885h10.746c4.48,0,7.7,2.31,7.7,6.406c0,2.765-1.505,4.55-3.01,5.321v0.07
			c2.695,0.805,3.99,3.324,3.99,5.845c0,4.971-3.955,7.211-8.576,7.211h-6.195c-1.646,0-2.38-0.7-2.38-2.38V27.957z M32.054,34.222
			c1.925,0,3.01-1.4,3.01-3.185s-1.05-3.081-3.08-3.081h-3.851v6.266H32.054z M28.903,45.038h3.57c2.24,0,3.5-1.505,3.5-3.605
			c0-2.064-1.295-3.57-3.5-3.57h-4.341v6.406C28.133,44.759,28.413,45.038,28.903,45.038z"/>
	</g>
	<g>
		<path fill="#FFFFFF" d="M30.125,58.074c-11.855,0-21.501-9.646-21.501-21.501s9.646-21.501,21.501-21.501
			s21.501,9.646,21.501,21.501S41.98,58.074,30.125,58.074z M30.125,18.072c-10.202,0-18.501,8.299-18.501,18.501
			c0,10.201,8.299,18.501,18.501,18.501s18.501-8.3,18.501-18.501C48.626,26.372,40.327,18.072,30.125,18.072z"/>
	</g>
</g>
</svg>
